<?xml version="1.0" encoding="utf-8"?>
<!-- Generator: Adobe Illustrator 25.0.0, SVG Export Plug-In . SVG Version: 6.00 Build 0)  -->
<svg version="1.1" id="Capa_1" xmlns="http://www.w3.org/2000/svg" xmlns:xlink="http://www.w3.org/1999/xlink" x="0px" y="0px"
	 viewBox="0 0 448 512" style="enable-background:new 0 0 448 512;" xml:space="preserve">
<style type="text/css">
	.st0{fill:#FFFFFF;}
</style>
<path class="st0" d="M0,256c0-11.6,14.3-21,32-21h384c17.7,0,32,9.4,32,21c0,11.6-14.3,21-32,21H32C14.3,277,0,267.6,0,256z M0,397
	c0-11.6,14.3-21,32-21h384c17.7,0,32,9.4,32,21s-14.3,21-32,21H32C14.3,418,0,408.6,0,397z M0,117c0-11.6,14.3-21,32-21h384
	c17.7,0,32,9.4,32,21s-14.3,21-32,21H32C14.3,138,0,128.6,0,117z"/>
</svg>
