<?xml version="1.0" encoding="utf-8"?>
<!-- Generator: Adobe Illustrator 25.0.0, SVG Export Plug-In . SVG Version: 6.00 Build 0)  -->
<svg version="1.1" id="Layer_1" xmlns="http://www.w3.org/2000/svg" xmlns:xlink="http://www.w3.org/1999/xlink" x="0px" y="0px"
	 viewBox="0 0 235 30" style="enable-background:new 0 0 235 30;" xml:space="preserve">
<style type="text/css">
	.st0{fill:#FFFFFF;}
</style>
<path class="st0" d="M15.8,28.5c-4.8,0-9.2-2.6-11.7-6.9c-1.2-2.1-1.9-4.3-1.9-6.7c0-4.8,2.7-9.5,6.8-11.8c2.1-1.2,4.3-1.7,6.7-1.7
	c3.4,0,6.6,1.3,9.1,3.6c0.1,0,0.2,0.1,0.3,0.2l0.3,0.3l-1,1L23.9,6c-2.2-2.1-5.1-3.2-8.2-3.2c-4.3,0-8.3,2.3-10.5,6.1
	c-1.1,1.9-1.6,3.9-1.6,6.1c0,4.3,2.3,8.3,6.1,10.5c1.9,1.1,3.9,1.6,6.1,1.6c2.6,0,4.7-0.7,8-2.9v-8.9h-8.5v-1.4h9.9V25l-0.3,0.2
	C21.3,27.5,18.9,28.5,15.8,28.5 M15.8,25.8c-3.9,0-7.5-2.1-9.5-5.5c-1-1.7-1.5-3.5-1.5-5.4c0-3.9,2.1-7.6,5.5-9.5
	C12,4.5,13.8,4,15.8,4c2.2,0,4.3,0.7,6.4,2.1l1,0.8l0.5,0.5l-2.8,3l-1.2-1c-1.1-0.8-2.4-1.2-3.9-1.2c-2.3,0-4.6,1.3-5.8,3.4
	c-0.6,1-0.9,2.2-0.9,3.4c0,2.3,1.3,4.6,3.4,5.8c1,0.6,2.2,0.9,3.4,0.9c1,0,1.9-0.2,2.7-0.6v-0.6h-3.2v-4h7.3v6.9l-0.9,0.7
	C19.8,25.3,18,25.8,15.8,25.8 M15.8,5.4c-3.4,0-6.6,1.8-8.3,4.8c-0.9,1.5-1.3,3.1-1.3,4.8c0,3.4,1.8,6.5,4.8,8.2
	c1.5,0.9,3.1,1.3,4.8,1.3c1.9,0,3.6-0.5,5-1.5l0.3-0.2V18h-4.5v1.2h3.2V22l-0.4,0.2c-1.3,0.6-2.5,0.9-3.7,0.9
	c-2.8,0-5.7-1.6-7.1-4.1c-0.7-1.2-1.1-2.6-1.1-4c0-2.9,1.6-5.6,4.1-7.1c1.2-0.7,2.6-1.1,4.1-1.1c1.7,0,3.3,0.5,4.7,1.5l0.3,0.2
	l0.9-1l-0.3-0.2C19.7,6,17.8,5.4,15.8,5.4"/>
<path class="st0" d="M40.7,28.5c-3.8,0-6.6-1-8.5-2.9c-1.9-1.9-2.8-4.6-2.8-7.9V1.4H36v16.3c0,2.9,1.4,4.2,4.6,4.2
	c3.1,0,4.7-1.5,4.7-4.2V1.4h4v16.3c0,2.1-0.5,4-1.6,5.4c-1.4,1.9-3.6,2.8-7,2.8c-4,0-6.3-1.1-7.6-3.6c-0.7-1.2-1-2.8-1-4.6V3.8h1.4
	v13.8c0,4.4,2.5,6.8,7.3,6.8S48,22,48,17.6V2.8h-1.2v14.9c0,3.4-2.3,5.6-6.1,5.6c-3.9,0-5.9-2-5.9-5.6V2.8H31v14.9
	c0,6.2,3.4,9.4,10,9.4c3.4,0,5.7-0.8,7.3-2.5s2.4-4.1,2.4-6.9V1.4h1.4v16.3c0,3.3-1,6-2.9,7.9C47.1,27.5,44.4,28.5,40.7,28.5"/>
<polygon class="st0" points="62.3,1.3 62.3,28.5 55.6,28.5 55.6,1.3 59.7,1.3 59.7,25.9 58.3,25.9 58.3,2.7 57,2.7 57,27.1 
	60.9,27.1 60.9,1.3 "/>
<path class="st0" d="M76.2,7.8V26h-1.4V6.4H84V2.7H67.5v1.2h15.2v1.4H66.1v-4h19.3v6.5H76.2z M78.8,9v19.5h-6.7V7.8h-6V6.4h7.4V27
	h3.9V9H78.8z"/>
<path class="st0" d="M107.5,27.1L96.7,2.6h-0.9L85,27.1h4.6l1.2-3.1h8l0.6,1.3h-7.7l-1.3,3.1h-7.6L95,1.3h2.5l12.2,27.1h-7.1
	l-2.5-5.6H90l-1.4,3.3h-1.7l2-4.5h12l2.5,5.5C103.4,27.1,107.5,27.1,107.5,27.1z M93.3,18.1l2.9-7.1l4.3,9.4H89.3l7-15.7l9.5,21.3
	h-1.6l-8-18l-4.7,11.3h6.9l-2.1-4.7l-1.4,3.5C94.9,18.1,93.3,18.1,93.3,18.1z"/>
<path class="st0" d="M125.6,28.5l-5.3-10H119v10h-6.7V1.3h1.4v25.8h3.9v-9.9h3.6l5.4,10h4.5l-4.3-8.1l1.3-0.5l5.4,10L125.6,28.5
	L125.6,28.5z M114.9,1.3h6.9c4.5,0,7.6,1.5,9.2,4.2c0.7,1.3,1,2.7,1,4.3c0,4.8-2.5,7.6-7.1,8.4l4.2,7.9h-1.6l-4.8-9l1-0.1
	c4.4-0.5,6.9-3,6.9-7.2c0-4.6-3.2-7.1-8.8-7.1h-5.5v23.4h-1.4V1.3z M121.4,14.6c4.4,0,6.4-1.4,6.4-4.5c0-2.9-2-4.6-5.5-4.6h-3.5v1.3
	h3c2,0,3.3,0.5,4,1.4c0.3,0.4,0.5,1,0.5,1.7c0,2.2-1.8,3.4-5.3,3.4h-3.7V9.5h1.4v2.4h2.2c2.6,0,3.9-0.7,3.9-2c0-1.2-1-1.7-3.1-1.7
	h-4.5V4h4.9c4.2,0,6.9,2.2,6.9,6c0,4-2.5,5.9-7.8,5.9h-3.9v-1.4h4.1V14.6z"/>
<path class="st0" d="M138.3,25.2c2.4,1.1,5,1.9,6.9,1.9c0.1,0,0.9-0.1,2.3-0.3c1.9-0.6,3.3-1.8,4.2-3.5l0.1-0.2
	c0.4-0.8,0.6-1.8,0.6-2.9c0-0.9-0.2-1.8-0.6-2.6c-0.6-1.3-1.7-2.4-3.2-3.2c-1-0.5-1.7-0.8-1.9-0.9l-1-0.3l-0.5-0.2
	c-2.1-0.6-3.4-1.5-3.9-2.5c-0.1-0.2-0.2-0.5-0.2-0.9c0-0.6,0.1-1,0.3-1.4V8.1c0.4-0.8,1-1.3,1.9-1.6c0.2-0.1,0.6-0.2,1.4-0.2
	c1.5,0,3.5,0.6,6,1.9l0.6-1c-2.4-1.4-4.7-2.1-6.7-2.1L143,5.3c-1.2,0.3-2.1,1.1-2.7,2.2c-0.3,0.5-0.4,1.1-0.4,1.8
	c0,0.6,0.1,1.1,0.3,1.6c0.6,1.4,2.1,2.4,4.6,3.1l0.5,0.2c1.3,0.4,2.3,0.9,3.1,1.3c1.6,0.8,2.7,2.3,2.7,4.5c0,1.2-0.3,2.2-0.8,3.1
	c-1,1.8-3,2.7-5.3,2.7c-2,0-4.1-0.5-6.3-1.7V24l0.7-1.1c2.4,1,4.3,1.5,5.6,1.5c1.9,0,3.3-0.7,4.1-2.2c0.3-0.7,0.5-1.4,0.5-2.2
	c0-1.4-0.6-2.4-1.9-3.2c-0.7-0.4-1.4-0.7-1.9-0.9l-1-0.4l-0.5-0.2c-2.8-0.9-4.7-2.1-5.5-3.9c-0.3-0.7-0.5-1.4-0.5-2.1
	c0-1,0.2-1.7,0.5-2.4c0.8-1.5,2-2.5,3.6-3c0.4-0.2,1-0.3,2.1-0.3c2.4,0,5.6,1.1,8,2.6l0.6,0.3L151,9.8l-0.6-0.3
	c-1.9-1.2-4.3-2.1-5.9-2.1c-0.6,0-1,0-1.3,0.2c-0.5,0.2-0.9,0.8-0.9,1.6l0.1,0.4c0.1,0.2,0.4,0.5,0.9,0.8c0.4,0.3,1.1,0.6,2.2,1
	l0.5,0.2c3.4,1.1,5.7,2.7,6.7,4.8c0.6,1.5,0.9,2.6,0.9,3.5c0,1-0.2,2.2-0.7,3.4l-0.2,0.3c-1.1,2.2-2.8,3.6-5.1,4.3
	c-0.8,0.2-1.7,0.3-2.7,0.3c-2.9,0-6.6-1.2-9.3-3l-0.6-0.3l3.4-5.5l0.6,0.3c1.9,1.2,4.3,2.1,5.9,2.1c1,0,1.7-0.3,2-0.9
	c0.1-0.2,0.2-0.4,0.2-0.8c0-0.2,0-0.3-0.1-0.5v-0.1c-0.3-0.6-1.3-1.2-2.9-1.7l-0.5-0.2c-3.5-1-5.8-2.8-7-5.2c-0.5-0.9-0.7-2-0.7-3.2
	c0-1.1,0.2-2.3,0.7-3.4l0.1-0.3c1.1-2.2,2.8-3.6,5.1-4.2c0.6-0.3,1.5-0.4,2.7-0.4c2.8,0,6.1,1.1,9.9,3.4l-0.7,1.2
	c-3.5-2.1-6.5-3.2-9.2-3.2c-0.1,0-0.9,0.1-2.3,0.3c-1.9,0.6-3.3,1.8-4.2,3.5l-0.1,0.2c-0.4,1-0.6,1.9-0.6,2.9c0,0.9,0.2,1.8,0.6,2.6
	c1,2.1,3,3.5,6.1,4.5h0.1l0.4,0.1c2.1,0.7,3.2,1.4,3.7,2.4l0.1,0.2c0.2,0.4,0.2,0.7,0.2,1c0,0.5-0.1,1-0.3,1.3v0.1
	c-0.4,0.8-1,1.3-1.9,1.5c-0.2,0.1-0.6,0.2-1.3,0.2c-1.4,0-3.1-0.4-5-1.3l-1.1-0.6l-1.9,3.1L138.3,25.2z"/>
<path class="st0" d="M164.7,19.6v8.9H158V1.3h6.7v9h-1.4V2.8h-3.9V27h3.9v-7.5h1.4V19.6z M178.1,14.2v14.2h-4.2V18.3h-11.8v7.8h-1.4
	v-9.2h14.6V27h1.4V15.6h-16.1v-1.4C160.6,14.2,178.1,14.2,178.1,14.2z M175.2,1.3v11.5h-14.6v-9h1.4v7.6h11.8V1.3H175.2z M180.8,1.3
	v27.1h-1.4V2.8h-1.3V13h-1.4V1.3H180.8z"/>
<path class="st0" d="M198.1,28.5c-4.7,0-9.3-2.6-11.8-6.9c-1.2-2.1-1.9-4.3-1.9-6.7c0-4.8,2.6-9.3,6.9-11.8c2.1-1.2,4.4-1.8,6.7-1.8
	c4.8,0,9.3,2.6,11.8,6.9c1.2,2.1,1.8,4.4,1.8,6.7c0,4.7-2.6,9.3-6.8,11.8C202.8,27.9,200.5,28.5,198.1,28.5 M198.1,2.6
	c-4.5,0-8.4,2.3-10.6,6.1c-1.1,1.9-1.6,4-1.6,6.2c0,4.5,2.3,8.4,6.1,10.6c1.9,1.1,3.9,1.6,6.1,1.6c4.5,0,8.5-2.3,10.6-6.1
	c1.1-1.9,1.6-3.9,1.6-6.1c0-4.5-2.3-8.5-6.1-10.6C202.4,3.2,200.3,2.6,198.1,2.6 M198.1,25.8c-3.8,0-7.6-2.1-9.6-5.5
	c-1-1.7-1.5-3.5-1.5-5.5c0-3.9,2.1-7.6,5.5-9.5c1.7-1,3.6-1.4,5.6-1.4c4.2,0,7.7,1.9,9.6,5.3c0.9,1.7,1.4,3.6,1.4,5.7
	c0,3.9-2,7.5-5.4,9.5C201.9,25.3,200.1,25.8,198.1,25.8 M198.1,5.3c-3.5,0-6.6,1.8-8.3,4.7c-0.9,1.5-1.3,3.1-1.3,4.8
	c0,3.5,1.9,6.6,4.8,8.3c1.4,0.9,3.1,1.3,4.8,1.3c3.5,0,6.6-1.9,8.3-4.8c0.9-1.5,1.3-3.1,1.3-4.8c0-3.5-1.8-6.6-4.8-8.3
	C201.4,5.7,199.8,5.3,198.1,5.3 M198.1,23.3c-3.1,0-5.8-1.6-7.3-4.3c-0.8-1.3-1.2-2.7-1.2-4.2c0-3.1,1.7-5.9,4.2-7.3
	c1.3-0.7,2.7-1.1,4.3-1.1c3,0,5.8,1.6,7.2,4.1c0.7,1.3,1.1,2.7,1.1,4.3c0,3.1-1.5,5.8-4.1,7.3C201.1,22.9,199.6,23.3,198.1,23.3
	 M198.1,7.8c-2.5,0-4.8,1.4-6.1,3.5c-0.7,1.1-1,2.2-1,3.5c0,2.5,1.3,4.8,3.5,6c1,0.6,2.2,0.9,3.6,0.9c2.6,0,4.8-1.3,6.1-3.5
	c0.6-1,0.9-2.2,0.9-3.5c0-2.5-1.3-4.8-3.5-6.1C200.5,8.2,199.4,7.8,198.1,7.8"/>
<path class="st0" d="M221.1,19.1v9.3h-6.7V1.3h1.4V27h3.8v-9.3h4.8c1.7,0,3.2-0.4,4.4-1.2c1.9-1.1,2.8-3.4,2.8-6.4
	c0-4.8-2.7-7.4-7.7-7.4h-5.5v9.7h5c2,0,2.8-0.6,2.8-2.3c0-1.4-0.7-2-2-2h-2.9v3.1h-1.4V6.7h4.4c2.1,0,3.3,1.2,3.3,3.4
	c0,2.5-1.4,3.7-4.1,3.7h-6.3V1.3h6.9c5.6,0,9.1,3.3,9.1,8.8c0,5.7-3.1,9-8.6,9H221.1z M218.4,16.5v9.7h-1.3V15.1h6.5
	c3.6,0,5.4-1.6,5.4-4.8c0-3.1-1.7-4.8-4.3-4.8h-4.8V4h4.8c2.2,0,4.1,1,5,2.9c0.5,0.9,0.7,2.1,0.7,3.4c0,4-2.2,6.2-6.7,6.2H218.4z"/>
</svg>
